<?xml version="1.0" encoding="utf-8"?>
<svg fill="none" height="22" viewBox="0 0 60 22" width="60" xmlns="http://www.w3.org/2000/svg">
  <g fill="currentColor" style="" transform="matrix(0.93873, 0, 0, 0.93873, 3.680347, 0.181871)">
    <path d="m53.7996 15.3534-3.4639-7.56849h-2.875l4.9484 10.21209-.0891.3075c-.1239.4087-.3855.7617-.7402.9987-.3546.237-.7804.3433-1.2045.3007-.4965-.0046-.9836-.136-1.4152-.3819l-.4602 2.1873c.6641.2743 1.3748.4174 2.0931.4215 1.9794 0 3.1769-.7291 4.1666-2.8766l5.2404-11.16929h-2.7761z" style="fill: rgba(255, 255, 255, 0.91);"/>
    <path d="m29.3187 4.1792h-8.3034v13.912h2.7216v-5.1135h5.5818c3.0334 0 5.0276-1.5325 5.0276-4.39923 0-2.86672-1.9942-4.39927-5.0276-4.39927zm-.1484 6.3633h-5.4433v-3.96776h5.4433c1.5735 0 2.4742.71916 2.4742 1.98389s-.9007 1.98387-2.4742 1.98387z" style="fill: rgba(255, 255, 255, 0.91);"/>
    <path d="m45.7249 15.4526v-4.1909c0-2.47988-1.7764-3.76445-4.8247-3.76445-2.4742 0-4.6416 1.15562-5.2502 2.93115l2.2367.7936c.3315-.8878 1.4845-1.54247 2.9195-1.54247 1.7023 0 2.4198.69437 2.4198 1.54247v.2728l-4.0478.4464c-2.3307.2479-3.8647 1.2944-3.8647 3.1643 0 2.0483 1.7567 3.1494 4.0874 3.1494 1.5023.0469 2.9653-.4857 4.0874-1.4879.4057.9919.8214 1.6565 3.5876 1.3044v-2.0732c-1.1085.2678-1.351 0-1.351-.5456zm-2.4742-1.3292c0 1.3491-1.8853 2.0633-3.4639 2.0633-1.2024 0-1.9249-.3869-1.9249-1.1556 0-.7688.5938-1.0465 1.7419-1.1805l3.6568-.4265z" style="fill: rgba(255, 255, 255, 0.91);"/>
  </g>
  <g transform="matrix(0.004108, 0, 0, -0.004108, 0.035646, 21.063457)" fill="#00fea2" stroke="none" style="">
    <path d="M364 4836 c-171 -55 -287 -181 -329 -358 l-15 -63 0 -1880 1 -1880 9 -73 9 -72 35 -76 35 -75 54 -53 c63 -61 140 -107 223 -133 l59 -18 1945 0 1945 0 59 23 c165 62 287 201 322 367 l13 60 -5 1925 -6 1925 -18 65 c-47 161 -172 282 -337 325 l-57 15 -1936 0 -1935 -1 -71 -23z m3914 -340 c15 -8 38 -26 52 -41 l25 -27 3 -559 2 -559 -1202 -2 -1203 -3 -31 -17 c-46 -25 -92 -82 -105 -130 l-12 -43 7 -1278 c4 -703 9 -1284 13 -1292 l5 -15 -680 0 -679 0 -28 22 c-15 12 -34 36 -41 54 l-14 33 0 1881 0 1881 14 28 c8 15 28 37 43 47 l28 19 1315 5 c723 3 1573 6 1888 8 l573 2 27 -14z m-1428 -1849 c0 -2 -7 -24 -16 -50 l-16 -47 -214 0 -214 0 6 28 c4 15 11 37 15 50 l9 22 215 0 c118 0 215 -1 215 -3z m690 -9 c0 -7 -5 -30 -11 -50 l-10 -38 -185 0 -185 0 42 50 42 50 154 0 153 0 0 -12z m810 6 c0 -3 -16 -26 -36 -50 l-36 -44 -214 0 -214 0 37 49 38 50 213 0 c116 1 212 -2 212 -5z m-1510 -203 l0 -19 60 -4 61 -4 16 -17 16 -16 -11 -39 c-7 -21 -21 -47 -32 -57 l-20 -18 -50 -5 -50 -5 0 -17 0 -17 78 -6 77 -5 16 14 16 14 141 0 142 0 0 14 c0 7 -9 16 -20 19 l-20 5 0 31 0 30 -110 3 -110 3 46 58 46 57 204 0 204 0 0 -20 0 -20 48 0 48 0 23 -16 23 -17 -5 -40 -5 -40 -20 -20 -20 -19 -46 -5 -46 -6 0 -18 0 -19 50 0 c27 0 61 -5 75 -12 l26 -12 15 22 15 22 140 0 139 0 0 14 c0 7 -9 16 -20 19 l-20 5 0 31 0 30 -105 3 -106 3 43 58 42 57 212 0 212 0 -5 -20 -5 -20 95 0 c151 0 170 -15 116 -89 l-30 -43 -34 -14 -34 -14 -106 0 -105 0 0 -20 0 -20 103 0 103 0 18 -13 18 -14 -6 -19 c-3 -11 -26 -42 -50 -69 l-43 -50 -127 -3 -126 -4 0 -19 0 -19 103 0 103 0 18 -13 18 -14 -6 -19 c-3 -10 -26 -41 -50 -69 l-44 -50 -128 -5 -129 -5 -3 -17 -3 -18 115 0 115 0 10 -19 10 -18 -29 -46 c-16 -25 -41 -54 -56 -64 l-28 -18 -120 -5 -121 -5 -3 -17 -3 -18 114 0 115 0 11 -14 12 -15 -14 -28 c-9 -15 -31 -46 -50 -68 l-35 -40 -126 -3 -126 -4 0 -19 0 -19 99 0 99 0 21 -18 22 -17 -39 -55 c-22 -31 -50 -61 -63 -68 l-24 -12 -115 -2 -115 -3 -3 -18 -3 -17 100 0 100 0 26 -12 c14 -6 25 -14 25 -17 0 -14 -41 -71 -74 -104 l-36 -36 -122 -3 -123 -3 -3 -17 -3 -18 100 0 100 0 26 -12 c31 -14 31 -14 -2 -63 -38 -56 -54 -72 -86 -84 l-28 -11 -182 0 -183 0 -23 16 -23 17 6 43 6 44 -50 0 -50 0 0 18 c0 9 3 27 6 40 l6 22 50 0 50 0 -7 22 c-3 13 -9 33 -12 46 l-5 22 -61 0 -61 0 -39 -38 -38 -37 -129 -3 -130 -4 0 -19 0 -19 109 0 110 0 15 -16 c21 -21 22 -20 -25 -80 l-40 -52 -31 -11 -31 -11 -181 0 -182 0 -23 16 -23 16 7 44 6 44 -55 0 c-60 0 -61 1 -45 49 l11 31 54 0 54 0 0 14 c0 8 -4 18 -10 21 -5 3 -10 17 -10 31 l0 24 -55 0 c-30 0 -55 3 -55 8 0 4 6 27 14 52 l13 45 67 3 66 3 0 12 c0 7 -9 18 -20 25 l-20 12 0 25 0 25 -55 0 c-62 0 -61 -1 -39 63 l16 47 59 0 59 0 0 15 c0 9 -7 18 -15 21 l-15 6 0 29 0 29 -55 0 c-62 0 -61 -1 -39 63 l16 47 64 0 64 0 0 13 c0 7 -9 18 -20 25 -11 7 -20 21 -20 32 l0 20 -55 0 c-30 0 -55 3 -55 7 0 4 7 33 16 65 l17 58 53 0 54 0 0 14 c0 8 -4 18 -10 21 -5 3 -10 17 -10 31 l0 24 -55 0 c-62 0 -61 -2 -40 68 l16 52 54 0 55 0 0 14 c0 8 -4 18 -10 21 -5 3 -10 17 -10 31 l0 24 -55 0 c-62 0 -61 -1 -39 63 l16 47 69 0 69 0 0 13 c0 7 -10 17 -22 22 l-23 10 -3 28 -3 27 -55 0 c-30 0 -54 3 -54 7 0 3 8 30 17 60 l17 53 213 0 213 0 0 -19z m0 -1706 l13 -16 -13 -24 c-7 -13 -24 -35 -37 -47 l-25 -23 -158 -3 -159 -3 -20 11 -21 11 0 30 0 30 25 24 24 25 179 0 180 0 12 -15z m761 -1 l18 -17 -11 -20 c-15 -28 -38 -52 -65 -66 l-22 -11 -150 0 -151 0 -19 19 -19 19 5 25 c3 14 14 35 24 46 l20 21 176 0 176 0 18 -16z"/>
    <path d="M2948 2091 c-10 -20 -18 -41 -18 -44 0 -4 49 -7 108 -7 l109 0 0 45 0 45 -91 0 -91 -1 -17 -38z"/>
    <path d="M3657 2095 c-9 -20 -17 -40 -17 -45 l0 -10 111 0 111 0 -6 23 c-3 12 -6 32 -6 45 l0 22 -88 0 -88 0 -17 -35z"/>
    <path d="M2817 2043 c-4 -3 -7 -13 -7 -20 l0 -14 37 3 38 3 3 18 3 17 -34 0 c-18 0 -37 -3 -40 -7z"/>
    <path d="M3530 2029 l0 -20 37 3 38 3 3 18 3 17 -40 0 -41 0 0 -21z"/>
    <path d="M2940 1890 c-7 -16 -16 -30 -21 -30 -5 0 -9 -7 -9 -15 l0 -15 66 0 66 0 -6 23 c-3 12 -6 32 -6 45 l0 22 -39 0 -39 0 -12 -30z"/>
    <path d="M3648 1881 c-25 -52 -26 -51 47 -51 l65 0 0 14 c0 8 -5 18 -10 21 l-10 6 6 25 6 24 -43 0 -44 -1 -17 -38z"/>
    <path d="M2890 1625 l0 -15 25 0 25 0 0 15 0 15 -25 0 -25 0 0 -15z"/>
    <path d="M3610 1625 l0 -15 25 0 25 0 0 15 0 15 -25 0 -25 0 0 -15z"/>
    <path d="M3077 1623 c-14 -13 -6 -33 13 -33 l20 0 0 20 0 20 -13 0 c-8 0 -17 -3 -20 -7z"/>
    <path d="M2960 1400 l0 -21 72 3 73 3 3 18 3 17 -75 0 -76 0 0 -20z"/>
    <path d="M3122 1238 l-22 -23 -130 -3 -130 -4 0 -18 0 -19 108 -4 c59 -2 117 -7 130 -11 l22 -8 0 21 0 21 65 0 65 0 0 15 c0 8 -7 15 -15 15 -8 0 -19 9 -25 20 -14 26 -40 25 -68 -2z"/>
  </g>
  <g transform="matrix(0.004108, 0, 0, -0.004108, 0.035646, 21.063457)" fill="#000000" stroke="none" style="">
    <path d="M2407 2653 c-3 -5 -9 -24 -15 -43 -5 -19 -13 -43 -17 -52 l-7 -18 230 0 230 0 16 47 c9 26 16 53 16 60 l0 13 -224 0 c-124 0 -227 -3 -229 -7z"/>
    <path d="M3182 2611 c-23 -27 -42 -54 -42 -60 l0 -11 195 0 194 0 11 43 c6 23 13 50 16 60 l5 17 -169 0 -169 0 -41 -49z"/>
    <path d="M3878 2610 c-21 -27 -38 -54 -38 -60 l0 -10 224 0 224 0 41 51 c23 29 41 56 41 60 l0 9 -227 -1 -228 0 -37 -49z"/>
    <path d="M2386 2413 c-10 -32 -21 -64 -23 -70 l-5 -13 230 0 230 0 16 47 c9 26 16 57 16 70 l0 23 -223 0 -223 0 -18 -57z"/>
    <path d="M3071 2406 c-28 -35 -51 -67 -51 -70 0 -3 114 -6 253 -6 l254 0 11 51 c7 28 12 59 12 70 l0 19 -214 0 -214 0 -51 -64z"/>
    <path d="M3777 2406 c-26 -35 -47 -67 -47 -70 0 -3 103 -6 228 -6 l228 0 42 57 c23 32 42 63 42 70 l0 13 -223 0 -223 0 -47 -64z"/>
    <path d="M2374 2198 c-9 -29 -19 -59 -22 -65 l-4 -13 229 0 230 0 16 60 c10 33 17 62 17 65 0 3 -101 5 -224 5 l-224 0 -18 -52z"/>
    <path d="M2956 2199 c-25 -28 -46 -57 -46 -65 l0 -14 304 0 305 0 15 54 c9 30 16 59 16 65 l0 11 -274 0 -274 0 -46 -51z"/>
    <path d="M3672 2203 c-23 -27 -42 -56 -42 -65 l0 -18 223 0 222 0 43 55 c23 30 42 60 42 65 l0 10 -223 0 -224 0 -41 -47z"/>
    <path d="M2364 1993 c-9 -32 -19 -64 -21 -70 l-5 -13 225 0 225 0 5 13 5 12 1 -12 1 -13 583 0 582 1 43 56 c23 31 42 63 42 70 l0 13 -225 0 c-124 0 -225 -3 -225 -7 -1 -5 -16 -26 -35 -48 l-35 -40 6 48 7 47 -332 0 c-182 0 -331 -3 -331 -7 0 -5 -19 -28 -40 -53 l-40 -45 8 25 c5 14 12 37 16 53 l6 27 -225 0 -224 0 -17 -57z"/>
    <path d="M2356 1782 c-9 -32 -16 -66 -16 -75 l0 -17 753 0 753 0 22 30 c43 57 72 103 72 111 l0 9 -784 0 -783 0 -17 -58z"/>
    <path d="M2344 1568 c-9 -29 -19 -59 -22 -65 l-4 -13 338 0 339 1 43 53 c23 29 42 58 42 65 l0 11 -359 0 -359 0 -18 -52z"/>
    <path d="M3085 1568 c-8 -28 -15 -58 -15 -65 l0 -13 334 0 334 0 41 51 c23 29 41 58 41 65 l0 14 -360 0 -359 0 -16 -52z"/>
    <path d="M2413 1413 l-62 -4 -17 -52 c-9 -29 -19 -58 -22 -64 l-4 -13 284 0 285 0 46 58 c26 31 47 63 47 70 l0 12 -247 -2 c-137 -1 -276 -3 -310 -5z"/>
    <path d="M3085 1368 c-8 -28 -15 -60 -15 -70 l0 -18 280 0 280 0 45 58 c25 31 45 63 45 70 l0 12 -310 0 -309 0 -16 -52z"/>
    <path d="M2406 1201 l-68 -6 -19 -60 c-10 -33 -19 -61 -19 -62 0 -2 103 -3 229 -3 l230 0 45 56 c26 31 46 62 46 70 l0 14 -187 -2 c-104 -1 -219 -4 -257 -7z"/>
    <path d="M3159 1203 l-65 -4 -13 -47 c-7 -26 -15 -55 -18 -64 l-5 -18 230 0 230 0 34 43 c33 40 58 79 58 91 0 6 -332 5 -451 -1z"/>
    <path d="M2316 953 c-20 -59 -37 -52 168 -60 l176 -6 35 39 c19 21 34 47 35 57 l0 17 -199 0 -199 0 -16 -47z"/>
    <path d="M3082 953 c-13 -60 -32 -53 167 -60 l171 -6 26 24 c23 22 54 69 54 84 0 3 -92 5 -204 5 l-204 0 -10 -47z"/>
  </g>
  <g transform="matrix(0.004108, 0, 0, -0.004108, 0.035646, 21.063457)" fill="#db1ffe" stroke="none" style="">
    <path d="M4621 4665 c2 -5 16 -33 31 -60 14 -28 33 -75 41 -105 l15 -55 6 -1915 5 -1915 -13 -60 c-35 -166 -157 -305 -322 -367 l-59 -23 -1935 0 -1935 0 -60 18 c-33 11 -79 30 -103 44 -55 32 -65 23 -23 -21 40 -41 147 -92 223 -106 l54 -10 1930 2 1929 3 50 19 c156 60 258 165 310 319 l25 76 0 1913 0 1913 -10 63 c-6 35 -24 91 -40 125 l-29 62 -47 45 c-25 25 -45 41 -43 35z"/>
    <path d="M1780 4510 l-1315 -5 -28 -19 c-15 -10 -35 -32 -43 -47 l-14 -28 0 -1890 0 -1890 11 -28 c10 -27 47 -73 58 -73 3 0 5 856 3 1903 l-2 1904 23 34 c12 19 38 42 57 51 l35 18 1893 0 1892 0 0 8 c0 11 -39 46 -67 61 l-22 11 -583 -2 c-321 -2 -1175 -5 -1898 -8z"/>
  </g>
  <g transform="matrix(0.004108, 0, 0, -0.004108, 0.035646, 21.063457)" fill="#03e0fe" stroke="none" style="">
    <path d="M4702 4573 c41 -86 60 -136 68 -187 l10 -61 0 -1903 0 -1903 -25 -76 c-52 -154 -154 -259 -310 -319 l-50 -19 -1919 -3 -1920 -2 -55 10 c-31 6 -89 26 -129 45 -39 19 -72 30 -72 25 0 -16 101 -83 173 -114 l72 -31 1910 -3 1910 -3 69 11 70 11 65 31 66 31 66 67 66 67 27 55 c15 31 34 82 41 114 l14 59 -1 1360 c0 748 -3 1628 -7 1955 l-7 595 -26 55 c-30 65 -84 140 -99 140 -6 0 -9 -3 -7 -7z"/>
    <path d="M520 4432 c-19 -9 -45 -32 -57 -51 l-23 -34 0 -1888 0 -1888 10 -25 10 -26 25 0 25 0 0 1883 0 1882 19 31 c10 17 34 38 52 47 l34 16 1878 2 1877 2 0 11 c0 6 -3 21 -6 34 l-6 22 -1902 0 -1901 0 -35 -18z"/>
  </g>
  <g transform="matrix(0.004108, 0, 0, -0.004108, 0.035646, 21.063457)" fill="#11ce8a" stroke="none" style="">
    <path d="M3523 2369 l-5 -29 -110 0 -109 0 3 -22 3 -23 153 -3 152 -3 20 11 20 11 0 35 0 35 -12 4 c-7 2 -35 5 -61 8 l-48 5 -6 -29z"/>
    <path d="M2816 2365 l-6 -25 -146 0 -145 0 3 -22 3 -23 202 -3 202 -2 16 24 c9 14 15 35 13 48 l-3 23 -66 3 -67 3 -6 -26z"/>
    <path d="M4194 2365 l-16 -25 -90 0 -89 0 3 -22 3 -23 193 -3 193 -2 30 30 30 30 -3 17 -3 18 -117 3 -117 3 -17 -26z"/>
    <path d="M2822 2243 c1 -5 -4 -32 -11 -60 l-13 -53 -145 0 -144 0 3 -22 3 -23 205 0 205 0 1 25 c0 14 5 35 12 46 15 29 7 34 -50 34 l-49 0 2 18 c3 29 -1 42 -11 42 -5 0 -9 -3 -8 -7z"/>
    <path d="M3520 2170 l-11 -40 -162 -2 -162 -3 0 -20 0 -20 214 -3 213 -2 14 11 c8 6 14 21 14 34 0 12 11 35 25 51 l25 29 -12 4 c-6 2 -16 -2 -22 -10 l-11 -14 -47 3 c-27 2 -48 7 -48 13 0 25 -20 4 -30 -31z"/>
    <path d="M4095 2170 l-27 -39 -87 -3 -86 -3 0 -20 0 -20 196 -3 197 -2 31 35 c17 20 31 45 31 55 l0 20 -105 0 -105 0 0 10 c0 21 -18 9 -45 -30z"/>
    <path d="M2806 2005 l-5 -15 12 0 12 -1 -16 -9 c-9 -5 -20 -21 -23 -35 l-6 -25 -141 0 -140 0 3 -22 3 -23 194 -3 193 -2 14 11 c8 6 14 18 14 25 l0 14 -55 0 c-63 0 -64 1 -29 44 l27 31 -17 3 c-9 2 -16 8 -16 13 0 15 -17 10 -24 -6z"/>
    <path d="M3526 2005 c-3 -8 -1 -15 5 -15 6 0 3 -7 -5 -16 -9 -8 -16 -24 -16 -35 l0 -19 -221 0 -220 0 3 -22 3 -23 275 0 275 0 3 22 3 22 -51 3 -51 3 26 35 26 35 -16 3 c-8 2 -15 8 -15 13 0 15 -17 10 -24 -6z"/>
    <path d="M3977 1953 l-22 -33 -82 0 -83 0 0 -25 0 -25 194 0 194 0 31 35 c58 66 49 73 -102 77 l-108 3 -22 -32z"/>
    <path d="M3923 1831 c1 -4 -18 -36 -42 -70 l-44 -61 -85 0 -84 0 6 -16 c3 -9 6 -18 6 -20 0 -2 87 -4 194 -4 l194 0 26 31 c14 17 26 41 26 55 l0 24 -107 1 c-60 0 -102 3 -95 6 6 2 12 12 12 22 0 9 5 22 12 29 l12 12 -17 0 c-9 0 -16 -4 -14 -9z"/>
    <path d="M2480 1692 c0 -4 5 -13 12 -20 l12 -12 191 0 190 1 18 13 c32 24 18 26 -203 26 -121 0 -220 -4 -220 -8z"/>
    <path d="M2954 1684 c3 -9 6 -18 6 -20 0 -2 144 -4 321 -4 l320 0 20 10 c10 6 19 15 19 20 l0 10 -346 0 -346 0 6 -16z"/>
    <path d="M3080 1583 l0 -18 -10 15 -9 15 -35 -40 c-19 -22 -35 -43 -36 -47 0 -5 -115 -8 -256 -8 l-255 0 3 -22 3 -23 737 -3 736 -2 26 31 c14 17 26 41 26 55 l0 24 -107 1 c-60 0 -102 3 -95 6 13 5 17 33 5 33 -5 -1 -25 -23 -46 -50 l-38 -50 -326 0 -325 0 5 14 c3 8 9 31 13 50 l6 36 -11 0 c-6 0 -11 -8 -11 -17z"/>
    <path d="M3704 1412 c3 -5 -15 -34 -40 -65 l-44 -57 -200 0 -200 0 0 -25 0 -25 311 0 311 0 29 32 30 31 -3 21 -3 21 -105 6 c-58 3 -100 6 -95 7 6 1 16 16 22 32 l11 30 -14 0 c-9 0 -13 -4 -10 -8z"/>
    <path d="M2890 1320 l-21 -30 -200 0 -200 0 3 -22 3 -23 309 -3 309 -2 13 11 c8 6 14 18 14 25 l0 14 -21 0 -21 0 7 30 7 30 -91 0 -90 0 -21 -30z"/>
    <path d="M2777 1115 l-28 -35 -145 0 -145 0 3 -22 3 -23 258 -3 258 -2 29 32 c17 18 30 43 30 55 l0 23 -104 0 c-57 0 -110 2 -118 5 l-13 5 -28 -35z"/>
    <path d="M3532 1110 l-23 -30 -150 0 -150 0 3 -22 3 -23 258 -3 258 -2 30 29 29 29 0 26 0 26 -118 0 -118 0 -22 -30z"/>
    <path d="M2671 921 l-11 -20 -103 -3 -102 -3 0 -35 0 -35 203 -3 203 -2 30 29 29 29 0 26 0 26 -104 0 c-57 0 -111 3 -119 6 l-15 6 -11 -21z"/>
    <path d="M3430 915 l-12 -14 -101 -3 -102 -3 0 -35 0 -35 203 -3 204 -2 29 31 29 31 0 24 0 24 -119 0 -119 0 -12 -15z"/>
    <path d="M2457 713 c-4 -3 -7 -19 -7 -35 l0 -28 163 0 164 0 18 20 17 19 -5 16 -6 15 -169 0 c-93 0 -172 -3 -175 -7z"/>
    <path d="M3227 713 c-4 -3 -7 -19 -7 -35 l0 -28 163 0 163 0 12 12 c7 7 12 22 12 35 l0 23 -168 0 c-93 0 -172 -3 -175 -7z"/>
  </g>
  <g transform="matrix(0.004108, 0, 0, -0.004108, 0.035646, 21.063457)" fill="#0add91" stroke="none" style="">
    <path d="M2397 2448 c-8 -29 -1 -36 8 -8 l7 21 219 -3 c120 -2 219 0 219 5 0 4 -101 7 -224 7 l-224 0 -5 -22z"/>
    <path d="M3117 2463 c-3 -5 93 -8 214 -8 120 0 219 3 219 8 0 4 -96 7 -214 7 -118 0 -217 -3 -219 -7z"/>
    <path d="M3820 2463 c0 -5 101 -8 225 -8 124 0 225 3 225 8 0 4 -101 7 -225 7 -124 0 -225 -3 -225 -7z"/>
    <path d="M4219 2398 l-10 -18 110 0 110 0 6 -10 c4 -6 -7 -24 -24 -40 l-30 -30 -183 2 -183 3 1 18 2 17 -18 0 -19 0 -7 -22 -6 -21 18 -14 19 -14 201 3 202 3 20 18 c10 10 28 33 38 52 l18 35 -14 14 -15 14 -114 4 -113 3 -9 -17z"/>
    <path d="M2826 2395 c-3 -9 -6 -17 -6 -18 0 -1 27 0 60 1 l60 4 6 -16 6 -16 -16 -25 -17 -25 -192 2 -192 3 1 18 2 17 -19 0 -19 0 0 -25 0 -24 19 -11 20 -10 185 0 185 0 25 10 25 9 12 41 13 42 -11 16 -10 17 -65 3 -66 3 -6 -16z"/>
    <path d="M3532 2398 l5 -13 49 -5 49 -5 3 -27 3 -27 -20 -11 -21 -11 -142 3 -143 3 1 18 2 17 -18 0 -19 0 -7 -22 -6 -21 18 -14 19 -14 167 3 167 3 12 12 c6 6 14 32 17 58 l5 47 -14 9 c-8 5 -40 9 -72 9 l-59 0 4 -12z"/>
    <path d="M2823 2204 c-7 -3 -13 -11 -13 -17 l0 -12 73 1 72 1 0 14 0 14 -60 2 c-33 1 -66 -1 -72 -3z"/>
    <path d="M3535 2200 c3 -5 1 -10 -4 -10 -6 0 -11 -3 -11 -7 0 -5 23 -6 52 -4 l52 3 12 -16 11 -16 10 12 c5 7 9 20 9 28 l-1 15 -68 3 -69 3 7 -11z"/>
    <path d="M4117 2204 c-19 -19 2 -24 108 -24 l115 0 0 -10 c0 -5 -14 -25 -31 -45 l-31 -35 -182 0 c-186 0 -204 3 -185 27 l11 13 -26 0 -27 0 3 -32 3 -33 209 -3 209 -2 39 42 39 42 -3 31 -3 30 -121 3 c-66 1 -123 -1 -127 -4z"/>
    <path d="M2490 2101 l0 -29 16 -6 c9 -3 103 -6 210 -6 l195 0 20 10 19 11 0 24 0 25 -19 0 -19 0 2 -17 1 -18 -195 0 -195 0 1 18 2 17 -19 0 -19 0 0 -29z"/>
    <path d="M3162 2098 l3 -33 230 -3 230 -3 18 22 c9 12 17 27 17 35 l0 14 -22 0 c-12 0 -18 -3 -15 -7 4 -3 2 -12 -4 -20 l-11 -13 -203 0 c-204 0 -224 3 -204 27 l11 13 -26 0 -27 0 3 -32z"/>
    <path d="M4018 2006 c-24 -33 -17 -36 98 -36 l103 0 6 -9 c3 -6 -9 -26 -26 -45 l-31 -36 -185 0 -185 0 5 21 5 20 -21 -3 -22 -3 0 -33 0 -33 -25 -5 c-14 -3 -29 -7 -35 -9 -5 -2 45 -4 113 -4 l122 -1 0 10 0 10 122 0 121 0 39 42 39 42 -3 31 -3 30 -102 3 -103 3 0 14 c0 22 -12 18 -32 -9z"/>
    <path d="M2800 1985 c0 -8 7 -15 15 -15 8 0 18 0 22 0 4 0 8 6 9 15 l2 15 -24 0 -24 0 0 -15z"/>
    <path d="M3520 1985 c0 -8 7 -15 15 -15 8 0 18 0 22 0 4 0 8 6 9 15 l2 15 -24 0 -24 0 0 -15z"/>
    <path d="M2480 1891 c0 -16 6 -31 13 -34 6 -2 -4 -9 -23 -15 l-35 -10 265 0 265 0 -34 10 -34 9 22 15 c11 8 21 24 21 35 l0 19 -21 0 c-11 0 -18 -4 -15 -9 3 -5 0 -14 -8 -20 l-14 -11 -183 2 -184 3 1 18 2 17 -19 0 -19 0 0 -29z"/>
    <path d="M3044 1893 l-7 -27 14 -5 14 -5 -40 -12 -40 -12 350 0 350 0 -33 9 -33 10 16 15 c8 9 15 24 15 35 l0 19 -19 0 -19 0 2 -17 1 -18 -265 0 -265 0 1 18 2 17 -19 0 -19 0 -6 -27z"/>
    <path d="M3897 1784 c-17 -17 13 -24 109 -24 l104 0 0 -14 c0 -8 -12 -28 -26 -45 l-26 -31 -183 0 -183 0 -6 15 c-7 19 -45 19 -70 0 l-20 -15 -312 0 -312 0 -6 15 c-7 19 -46 19 -72 0 l-19 -14 -181 -1 -182 0 -12 15 c-7 8 -19 15 -27 15 l-14 0 7 -22 c11 -38 2 -37 807 -37 l778 0 22 8 c13 5 35 27 51 49 l28 40 -4 24 -3 23 -121 3 c-66 1 -123 0 -127 -4z"/>
    <path d="M3036 1564 l-5 -12 29 -4 c16 -2 27 -1 24 4 -3 4 0 8 5 8 6 0 11 5 11 10 l0 10 -30 -2 c-16 -1 -32 -8 -34 -14z"/>
    <path d="M3787 1574 c-17 -17 13 -24 109 -24 l104 0 0 -14 c0 -8 -12 -28 -26 -45 l-26 -31 -726 2 -727 3 1 18 2 17 -19 0 -19 0 0 -29 0 -29 16 -6 c9 -3 347 -6 751 -6 l735 0 35 37 c36 40 49 73 39 98 l-5 15 -119 0 c-65 0 -122 -3 -125 -6z"/>
    <path d="M2945 1390 c-3 -5 -3 -10 1 -10 3 0 -4 -9 -17 -19 l-24 -19 92 -4 92 -3 5 18 4 17 -64 0 -64 0 0 15 c0 17 -16 20 -25 5z"/>
    <path d="M3695 1390 c-3 -5 -3 -10 1 -10 4 0 -1 -6 -12 -14 l-19 -15 15 -5 c8 -3 57 -7 109 -8 l94 -3 4 -11 c2 -6 -10 -25 -26 -43 l-29 -31 -302 0 -302 0 5 20 5 20 -19 0 -19 0 0 -29 0 -29 16 -6 c9 -3 150 -6 314 -6 l299 0 23 11 c31 14 78 77 78 105 0 29 -16 34 -121 34 l-89 0 0 15 c0 17 -16 20 -25 5z"/>
    <path d="M2450 1261 l0 -29 16 -6 c9 -3 154 -6 323 -6 l308 0 27 21 c14 11 26 27 26 35 l0 14 -26 0 c-14 0 -23 -4 -20 -9 3 -5 0 -14 -8 -20 l-13 -11 -299 2 -299 3 1 18 2 17 -19 0 -19 0 0 -29z"/>
    <path d="M3593 1203 c4 -3 -5 -21 -19 -40 l-25 -33 115 0 116 0 0 -16 c0 -8 -13 -29 -29 -45 l-30 -29 -248 2 -248 3 1 18 2 17 -19 0 -19 0 0 -24 c0 -14 5 -28 11 -32 l11 -6 -13 -9 c-8 -5 -35 -9 -61 -9 -27 0 -48 -3 -48 -7 0 -5 92 -8 205 -8 l205 0 0 12 0 11 126 4 125 3 30 35 c32 38 44 72 35 95 l-5 15 -106 0 -105 0 0 13 c0 7 5 18 12 25 l12 12 -19 0 c-10 0 -15 -3 -12 -7z"/>
    <path d="M2818 1166 c-24 -34 -17 -36 104 -36 l108 0 0 -13 c0 -7 -13 -27 -30 -45 l-29 -32 -248 2 -248 3 1 18 2 17 -19 0 -19 0 0 -30 0 -30 13 0 12 0 -15 -10 c-8 -5 -38 -10 -66 -10 l-52 0 -6 -16 c-9 -24 -7 -31 5 -11 l10 17 189 0 190 0 0 -15 c0 -8 5 -15 11 -15 5 0 8 4 5 9 -4 5 -3 16 0 25 l6 16 121 0 120 0 44 45 c24 25 43 54 43 65 0 11 4 20 9 20 5 0 11 6 14 13 l5 14 -14 0 c-8 0 -14 -3 -14 -6 0 -3 -49 -5 -110 -3 l-110 3 0 15 c0 21 -13 17 -32 -10z"/>
    <path d="M3457 945 l-18 -25 116 0 115 0 0 -14 c0 -8 -13 -28 -29 -45 l-29 -31 -194 2 -193 3 2 33 1 33 -16 -3 -17 -3 -3 -39 -3 -39 13 -8 c7 -5 105 -9 217 -9 l204 0 44 46 44 46 -3 26 -3 27 -107 3 -108 3 0 9 c0 17 -14 10 -33 -15z"/>
    <path d="M2687 944 c-17 -18 13 -24 114 -24 l109 0 0 -16 c0 -8 -13 -29 -29 -45 l-30 -29 -193 2 -193 3 2 33 1 33 -16 -3 -17 -3 -3 -39 -3 -39 13 -8 c7 -5 105 -9 217 -9 l204 0 44 44 44 45 -3 28 -3 28 -126 3 c-69 1 -128 0 -132 -4z"/>
    <path d="M2445 724 l-16 -16 3 -37 3 -36 173 -3 172 -2 25 24 25 25 0 31 0 30 -184 0 -185 0 -16 -16z m348 -21 c4 -3 0 -15 -10 -25 l-16 -18 -154 0 -153 0 0 18 c0 10 3 22 7 25 8 9 318 9 326 0z"/>
    <path d="M3211 726 l-12 -15 3 -38 3 -38 169 -3 169 -2 29 27 29 28 -3 25 -3 25 -186 3 -186 2 -12 -14z m349 -29 c0 -7 -5 -18 -12 -25 l-12 -12 -153 0 -153 0 0 18 c0 31 7 32 172 32 l158 0 0 -13z"/>
  </g>
  <g transform="matrix(0.004108, 0, 0, -0.004108, 0.035646, 21.063457)" fill="#02f79f" stroke="none" style="">
    <path d="M3546 2428 c3 -4 0 -8 -5 -8 -43 0 2 -20 50 -22 l62 -3 10 -16 10 -16 -19 -39 -19 -39 -169 -3 -168 -2 -13 10 -13 11 5 19 5 20 -19 0 -19 0 4 -36 4 -37 19 -4 19 -5 -7 -10 -6 -11 164 5 164 4 30 15 c32 15 50 45 58 96 l5 32 -20 18 -19 17 -59 6 c-32 3 -56 2 -54 -2z"/>
    <path d="M2837 2423 c-17 -16 -2 -22 61 -25 l67 -3 3 -31 3 -30 -21 -27 -21 -27 -203 0 -202 0 -12 12 c-7 7 -12 20 -12 30 0 10 -6 18 -14 18 l-13 0 6 -32 7 -33 22 -11 c12 -6 19 -14 14 -19 -4 -4 81 -5 188 -3 l195 5 27 11 c15 6 35 23 44 37 l17 27 1 41 1 41 -25 13 c-26 13 -122 18 -133 6z"/>
    <path d="M4240 2415 l0 -14 112 -3 113 -3 3 -17 3 -16 -39 -41 -39 -41 -201 0 -201 0 -8 13 c-4 6 -6 20 -5 30 l3 17 -18 0 -19 0 4 -36 4 -37 19 -4 c10 -3 16 -10 13 -15 l-6 -10 198 7 199 7 32 13 32 13 30 43 c17 23 31 53 31 66 l0 23 -26 10 c-14 6 -72 10 -130 10 l-104 0 0 -15z"/>
    <path d="M2820 2220 c0 -5 15 -10 34 -10 18 0 55 -3 82 -7 l49 -6 -14 16 -13 17 -69 0 -69 0 0 -10z"/>
    <path d="M3535 2220 l-6 -10 40 0 c22 0 52 -5 67 -10 l27 -11 24 17 c14 8 22 18 18 22 -3 4 -9 1 -13 -5 l-8 -12 -14 9 c-20 13 -127 13 -135 0z"/>
    <path d="M4140 2221 l0 -9 105 -4 104 -3 12 -12 12 -12 -21 -33 c-11 -18 -32 -43 -45 -56 l-24 -22 -204 2 -204 3 -3 28 -3 27 -20 0 c-11 0 -18 -4 -15 -8 3 -5 6 -25 8 -45 l2 -37 96 0 97 0 0 -15 c0 -8 -4 -15 -9 -15 -4 0 -8 -4 -8 -10 l0 -10 114 0 115 0 6 -11 c8 -12 -41 -86 -71 -105 l-21 -14 -199 2 -199 3 3 28 3 27 -18 0 -19 0 -2 -29 c-1 -16 4 -33 10 -39 l13 -10 187 -7 c102 -4 202 -5 222 -1 l36 7 45 55 45 56 0 24 0 23 -19 11 c-11 5 -65 10 -120 10 l-101 0 0 10 0 10 109 0 c134 0 149 5 200 70 l41 52 0 24 0 23 -19 11 -20 10 -110 0 -111 0 0 -9z"/>
    <path d="M2467 2108 c3 -13 7 -30 10 -38 4 -8 6 -18 5 -22 -2 -9 323 -15 408 -7 36 3 61 6 56 7 -5 1 -4 8 2 15 6 7 15 25 21 40 l11 27 -13 0 c-6 0 -20 -14 -29 -30 l-17 -30 -205 0 -205 0 -8 13 c-4 6 -6 20 -5 30 l3 17 -19 0 -20 0 5 -22z"/>
    <path d="M3133 2085 l0 -45 198 0 199 0 1 -17 c1 -10 1 -21 0 -25 -2 -14 46 -8 59 7 l12 15 -31 0 -31 0 0 11 0 11 33 -2 c54 -3 91 0 84 6 -3 4 3 24 14 45 l19 39 -18 0 -18 0 -11 -30 -11 -30 -234 2 -233 3 3 28 3 27 -19 0 -19 0 0 -45z"/>
    <path d="M2813 2008 l1 -18 21 0 c19 0 45 17 45 30 0 3 -15 5 -34 5 l-34 0 1 -17z"/>
    <path d="M2458 1893 c2 -16 9 -34 15 -40 l9 -13 217 0 c234 0 230 0 255 48 l17 32 -14 0 c-7 0 -23 -13 -35 -30 l-23 -30 -197 0 -198 0 -12 12 c-7 7 -12 20 -12 30 0 10 -6 18 -14 18 l-13 0 5 -27z"/>
    <path d="M3019 1883 l6 -38 304 -3 304 -2 13 10 c7 6 17 24 23 41 l10 29 -12 0 c-7 0 -20 -14 -29 -30 l-17 -30 -275 0 c-151 0 -281 2 -289 6 l-14 5 5 25 4 24 -19 0 -20 0 6 -37z"/>
    <path d="M3920 1803 l0 -13 88 -1 c151 -2 162 -12 102 -88 l-41 -51 -792 2 -792 3 -10 23 -10 22 -65 -2 -65 -2 58 -3 57 -4 0 -19 c0 -10 9 -25 20 -33 11 -8 17 -17 13 -20 -3 -4 91 -7 211 -7 l217 0 -6 10 -6 10 16 0 16 0 -6 -10 -6 -10 75 0 75 0 -5 -15 -6 -15 15 0 c8 0 20 7 27 15 l12 15 260 0 259 0 -6 10 -6 10 16 0 16 0 -6 -10 -6 -10 85 0 86 0 0 -14 0 -14 105 -4 104 -3 12 -12 12 -12 -41 -55 -41 -54 -63 -7 c-35 -3 -365 -5 -734 -3 l-671 3 -15 13 -16 13 5 19 5 20 -19 0 -20 0 5 -32 c3 -18 12 -38 21 -45 l16 -12 244 -1 243 0 -13 -17 -14 -17 15 9 15 9 -14 -17 -13 -17 82 0 82 0 -5 14 c-3 8 0 19 7 25 l12 10 428 3 428 3 39 45 c21 24 44 58 50 73 l12 29 -10 17 -10 16 -117 3 -116 3 0 9 0 10 119 0 118 0 34 23 c18 12 47 44 63 70 l29 47 -11 25 -11 24 -121 3 -120 3 0 -12z m-825 -403 c-3 -5 -33 -10 -66 -10 l-59 0 0 10 0 10 66 0 65 0 -6 -10z"/>
    <path d="M3694 1389 l-7 -12 14 8 14 9 -14 -17 -13 -17 115 0 116 0 6 -10 c9 -15 -63 -109 -88 -115 -12 -3 -159 -4 -327 -3 l-305 3 -3 28 -3 27 -21 0 c-11 0 -36 -13 -55 -30 l-34 -30 -307 0 -308 0 -12 12 c-7 7 -12 20 -12 30 0 10 -6 18 -13 18 l-14 0 5 -30 4 -31 21 -14 21 -15 183 0 182 0 -4 -20 -4 -20 87 0 c48 0 104 -5 125 -11 45 -12 54 -8 32 15 l-16 16 -105 0 -104 0 0 11 0 10 124 -3 c68 -2 122 0 119 5 -2 4 1 7 8 7 7 0 23 10 37 22 l23 23 19 -25 19 -25 325 -3 325 -3 39 40 c21 21 47 56 57 76 l20 37 -24 19 -23 19 -93 0 c-51 0 -100 3 -108 6 -8 3 -18 0 -23 -7z"/>
    <path d="M3590 1174 l0 -12 105 -4 104 -3 12 -12 12 -12 -38 -50 c-47 -64 -34 -62 -330 -59 l-250 3 -3 28 -3 27 -19 0 -19 0 9 -30 c5 -16 11 -34 15 -40 l6 -10 150 0 c82 0 149 -3 149 -7 0 -5 56 -7 125 -5 l125 3 36 36 c116 116 102 144 -74 153 l-112 5 0 -11z"/>
    <path d="M3010 1055 l-34 -35 -256 0 -256 0 -12 12 c-7 7 -12 20 -12 30 0 10 -6 18 -14 18 l-13 0 3 -25 c1 -14 8 -32 14 -40 l12 -15 145 0 c79 0 142 -3 140 -7 -3 -5 55 -6 128 -3 l134 5 41 40 c22 21 40 43 40 47 0 18 -28 6 -60 -27z"/>
    <path d="M3479 975 c0 0 -2 -8 -4 -17 l-3 -18 113 0 114 0 6 -10 c6 -10 -29 -64 -67 -102 l-18 -18 -204 0 -204 0 -11 14 -11 13 6 33 7 33 -14 -5 -14 -5 -3 -40 -3 -41 23 -16 22 -16 193 0 192 0 28 11 c68 26 138 146 96 165 -13 6 -183 19 -244 19z"/>
    <path d="M2713 963 c-7 -2 -13 -9 -13 -14 l0 -9 119 0 120 0 6 -10 c8 -13 -10 -42 -53 -87 l-30 -33 -204 0 -204 0 -11 11 -11 11 5 34 6 34 -11 0 c-13 0 -22 -24 -22 -60 l0 -29 22 -15 22 -16 192 0 191 0 31 11 31 11 40 52 c45 58 49 76 25 100 l-15 16 -112 -1 c-62 0 -118 -3 -124 -6z"/>
    <path d="M2443 745 c-12 -9 -27 -32 -32 -52 l-10 -36 10 -18 c14 -28 40 -31 217 -27 l160 3 25 24 c14 12 32 37 41 54 l15 32 -16 17 -16 18 -186 0 -187 0 -21 -15z m386 -20 l11 -11 -31 -37 -30 -37 -169 0 -168 0 -6 15 c-9 23 11 64 36 75 l23 9 162 -2 162 -2 10 -10z"/>
    <path d="M3200 738 c-11 -12 -20 -27 -20 -32 0 -6 -3 -21 -6 -33 l-6 -21 21 -21 21 -21 161 0 160 0 22 11 c28 14 65 55 73 81 l6 19 -18 20 -17 19 -188 0 -188 0 -21 -22z m381 -8 c25 -14 24 -20 -10 -58 l-30 -32 -166 0 -166 0 -6 16 c-3 9 -2 28 3 42 l9 26 25 7 c14 4 92 7 173 8 l148 1 20 -10z"/>
  </g>
  <g transform="matrix(0.004108, 0, 0, -0.004108, 0.035646, 21.063457)" fill="#06ed9a" stroke="none" style="">
    <path d="M4238 2424 c-18 -17 11 -24 106 -24 l104 0 10 -13 11 -13 -25 -38 c-36 -52 -53 -56 -250 -56 l-175 0 -20 10 -19 11 10 19 11 20 -19 0 -18 0 -1 -22 c-1 -12 3 -28 9 -35 l10 -13 208 0 207 0 26 20 c14 11 35 36 47 55 l22 36 -12 14 -12 15 -108 0 -108 0 -4 11 c-2 5 -7 7 -10 3z"/>
    <path d="M2830 2408 c0 -5 26 -8 59 -8 l59 0 12 -15 12 -14 -12 -36 -12 -36 -25 -10 c-13 -5 -104 -9 -202 -9 l-177 0 -19 14 -18 13 6 17 6 16 -18 0 -19 0 5 -22 c3 -13 10 -29 16 -35 l9 -13 213 0 214 0 21 27 21 27 -3 40 -3 41 -73 5 c-39 3 -72 2 -72 -2z"/>
    <path d="M3530 2405 l0 -11 40 4 c22 2 52 1 66 -2 l26 -7 -5 -41 c-3 -22 -10 -46 -17 -52 l-11 -11 -154 -3 -154 -3 -20 11 -21 11 10 19 11 20 -19 0 -18 0 -1 -22 c-1 -12 3 -28 9 -35 l10 -13 179 0 179 0 15 24 c9 13 18 39 21 58 l6 34 -14 11 c-7 6 -41 13 -76 15 l-62 3 0 -10z"/>
    <path d="M2823 2216 c2 -6 28 -12 57 -14 30 -2 60 -7 66 -13 l11 -9 13 15 12 15 -13 1 c-8 0 -44 3 -82 8 l-67 7 3 -10z"/>
    <path d="M4128 2213 l-10 -12 119 -3 118 -3 3 -20 3 -21 -39 -42 -39 -42 -199 2 -199 3 0 28 1 27 -17 0 -16 0 6 -32 7 -33 213 -3 214 -2 20 17 c10 10 33 38 49 61 l30 44 -16 16 -17 17 -110 5 -111 5 -10 -12z"/>
    <path d="M3530 2211 l0 -11 54 0 c30 0 63 -3 73 -6 l18 -7 -12 13 -13 14 -60 4 -60 4 0 -11z"/>
    <path d="M2482 2106 c-1 -13 5 -29 12 -35 l14 -11 213 2 213 3 19 33 19 32 -21 0 -20 0 6 -16 6 -17 -18 -13 -19 -14 -190 0 c-105 0 -197 4 -205 9 l-14 9 6 21 5 21 -12 0 c-6 0 -13 -11 -14 -24z"/>
    <path d="M3154 2098 l1 -33 244 0 245 0 13 33 13 32 -16 0 c-8 0 -13 -4 -10 -9 3 -5 -2 -19 -12 -30 l-17 -22 -220 3 -220 3 0 28 1 27 -12 0 -11 0 1 -32z"/>
    <path d="M2387 2043 c-3 -5 94 -7 215 -5 l220 3 -8 -12 -7 -12 12 7 c6 4 9 12 6 17 l-6 9 -214 0 c-118 0 -216 -3 -218 -7z"/>
    <path d="M3000 2043 c290 -7 540 -7 540 0 0 4 -147 6 -327 5 -181 -1 -276 -4 -213 -5z"/>
    <path d="M3607 2043 c-3 -5 95 -8 218 -8 123 0 221 3 218 8 -2 4 -100 7 -218 7 -118 0 -216 -3 -218 -7z"/>
    <path d="M4014 1998 c-3 -4 48 -9 113 -10 l118 -3 3 -20 3 -21 -39 -42 -39 -42 -197 0 -197 0 -5 15 c-4 8 -1 22 6 30 l12 15 -19 0 -20 0 1 -32 1 -33 209 -3 209 -2 22 14 c12 8 36 36 54 62 l31 47 -11 13 -10 13 -121 3 c-66 2 -122 0 -124 -4z"/>
    <path d="M2467 1895 c3 -13 11 -29 18 -35 l13 -10 207 2 207 3 26 33 25 32 -21 0 -21 0 5 -14 5 -14 -23 -16 -22 -16 -186 0 c-102 0 -191 4 -199 9 l-14 9 6 21 5 21 -18 0 -17 0 4 -25z"/>
    <path d="M3033 1890 l-2 -30 22 -5 c12 -3 148 -4 301 -3 l280 3 19 33 19 32 -21 0 -20 0 5 -14 c3 -7 -2 -21 -11 -30 l-16 -16 -267 0 c-147 0 -273 4 -281 9 l-13 8 11 22 12 21 -18 0 -18 0 -2 -30z"/>
    <path d="M3916 1811 c-4 -6 -4 -11 1 -11 4 0 1 -5 -7 -10 l-15 -10 118 0 118 0 5 -15 6 -16 -28 -40 c-15 -23 -39 -45 -53 -51 l-25 -9 -191 5 c-104 2 -199 4 -210 3 -26 -2 -672 -1 -705 0 -14 1 -110 0 -214 -3 -209 -6 -231 -3 -239 26 -3 11 -10 20 -16 20 l-10 0 6 -17 c3 -10 10 -24 16 -30 l9 -13 799 0 799 0 40 51 c69 88 55 106 -90 108 l-95 2 -6 11 -6 10 -7 -11z"/>
    <path d="M3806 1602 c-4 -7 -4 -12 1 -12 4 0 1 -5 -7 -10 l-15 -10 118 0 118 0 5 -15 6 -16 -28 -40 c-15 -22 -35 -44 -45 -50 l-18 -9 -723 0 -723 0 -14 9 -14 9 6 21 5 21 -12 0 c-6 0 -13 -11 -14 -24 l-2 -24 17 -13 16 -14 681 -3 c375 -2 709 0 744 3 l63 7 39 52 c22 29 40 60 40 70 l0 16 -26 10 c-14 6 -65 10 -114 10 l-88 0 -4 12 -4 12 -8 -12z"/>
    <path d="M3010 1370 l-85 -6 88 -2 87 -2 0 10 c0 6 -1 9 -2 8 -2 -1 -41 -5 -88 -8z"/>
    <path d="M3792 1361 c64 -3 119 -9 123 -13 16 -16 -30 -84 -73 -107 l-21 -11 -293 0 -293 0 -14 9 -14 9 6 21 5 21 -18 0 -17 0 6 -32 7 -33 328 -3 328 -2 32 35 c42 46 60 80 53 99 l-6 16 -128 -2 -128 -2 117 -5z"/>
    <path d="M2437 1268 c3 -13 10 -29 16 -35 l9 -13 319 0 319 0 38 35 37 34 -23 1 -23 0 6 -9 c3 -5 -7 -19 -21 -30 l-27 -21 -301 0 -301 0 -14 9 -14 9 6 21 5 21 -18 0 -18 0 5 -22z"/>
    <path d="M3586 1182 c-4 -7 -4 -12 1 -12 4 0 1 -5 -7 -10 l-15 -10 118 0 118 0 5 -15 6 -16 -28 -40 c-40 -58 -47 -59 -318 -59 l-244 0 -12 15 c-7 8 -10 22 -6 30 l5 15 -13 0 -13 0 6 -32 7 -33 259 -3 c307 -3 293 -5 340 58 60 82 44 97 -107 99 l-86 1 -4 12 -4 12 -8 -12z"/>
    <path d="M2815 1160 l-6 -9 123 -3 123 -3 3 -17 3 -16 -44 -46 -44 -46 -249 0 -249 0 -14 9 -14 9 6 21 5 21 -18 0 -18 0 5 -22 c3 -13 10 -29 16 -35 l9 -13 267 0 267 0 33 34 33 34 13 -5 13 -5 -2 26 c-2 14 1 26 5 26 5 0 9 7 9 15 l0 14 -37 10 c-21 6 -82 11 -135 11 l-97 0 -6 -10z"/>
    <path d="M2694 948 c-3 -4 50 -9 118 -10 l123 -3 3 -18 4 -18 -45 -44 -44 -45 -194 0 c-107 0 -200 4 -208 9 l-14 9 6 36 c8 47 -9 47 -17 0 l-7 -36 12 -14 11 -14 215 0 215 0 39 43 c41 44 58 82 43 97 -11 11 -254 18 -260 8z"/>
    <path d="M3565 950 l-110 -4 120 -6 120 -5 3 -17 3 -16 -44 -46 -44 -46 -194 0 c-107 0 -200 4 -208 9 l-14 9 6 36 6 36 -9 0 c-5 0 -12 -16 -16 -35 l-6 -35 12 -15 12 -15 214 0 214 0 18 18 c113 113 96 140 -83 132z"/>
    <path d="M2462 740 c-26 -11 -45 -55 -37 -87 l5 -23 158 -1 c204 -2 192 -4 230 38 39 44 40 60 6 73 l-25 10 -157 -1 c-86 0 -167 -4 -180 -9z m358 -30 c0 -12 -11 -32 -25 -46 l-25 -24 -162 2 -163 3 -3 26 -3 26 16 17 16 16 175 0 174 0 0 -20z"/>
    <path d="M3232 743 c-28 -6 -44 -35 -40 -76 l3 -32 178 -3 178 -2 29 32 c35 38 38 63 11 78 l-20 10 -158 -1 c-87 -1 -168 -4 -181 -6z m355 -29 l6 -15 -29 -30 -28 -29 -161 2 -160 3 -3 28 c-2 16 2 35 9 43 l11 14 175 0 174 0 6 -16z"/>
  </g>
  <g transform="matrix(0.004108, 0, 0, -0.004108, 0.035646, 21.063457)" fill="#001c12" stroke="none" style="">
    <path d="M2480 2653 c184 -7 380 -7 380 0 0 4 -102 6 -227 5 -126 -1 -194 -3 -153 -5z"/>
    <path d="M3303 2653 c48 -2 125 -2 170 0 45 1 6 3 -88 3 -93 0 -130 -2 -82 -3z"/>
    <path d="M3990 2653 c184 -7 380 -7 380 0 0 4 -102 6 -227 5 -126 -1 -194 -3 -153 -5z"/>
    <path d="M2810 2350 l0 -10 -222 -3 -223 -2 228 -3 227 -2 0 15 c0 8 -2 15 -5 15 -3 0 -5 -4 -5 -10z"/>
    <path d="M3143 2333 c70 -2 184 -2 255 0 70 1 12 3 -128 3 -140 0 -198 -2 -127 -3z"/>
    <path d="M3843 2333 c65 -2 168 -2 230 0 62 1 9 3 -118 3 -126 0 -177 -2 -112 -3z"/>
    <path d="M2503 2243 c65 -2 168 -2 230 0 62 1 9 3 -118 3 -126 0 -177 -2 -112 -3z"/>
    <path d="M3138 2243 c79 -2 205 -2 280 0 75 1 11 3 -143 3 -154 0 -216 -2 -137 -3z"/>
    <path d="M3823 2243 c65 -2 168 -2 230 0 62 1 9 3 -118 3 -126 0 -177 -2 -112 -3z"/>
    <path d="M2922 2148 c-7 -7 -12 -16 -12 -20 0 -4 137 -8 305 -8 l305 0 -1 18 -1 17 -5 -12 -5 -13 -295 0 -295 0 12 15 c15 18 9 20 -8 3z"/>
    <path d="M3627 2136 l-6 -16 227 2 227 3 -215 2 -214 3 -7 11 -6 11 -6 -16z"/>
    <path d="M2468 2123 c61 -2 163 -2 225 0 61 1 11 3 -113 3 -124 0 -174 -2 -112 -3z"/>
    <path d="M2791 1960 l-12 -40 -217 -3 c-119 -1 46 -2 368 -2 322 0 428 1 236 2 l-350 3 -8 13 c-4 6 -5 24 -2 40 8 41 -1 33 -15 -13z"/>
    <path d="M3526 1934 c-3 -9 -6 -18 -6 -20 0 -2 99 -4 220 -4 l219 0 11 23 11 22 -14 -17 -14 -18 -211 0 -211 0 5 15 c4 8 4 15 1 15 -3 0 -8 -7 -11 -16z"/>
    <path d="M2360 1613 c0 -5 161 -7 357 -5 l357 3 -17 -19 c-9 -10 -17 -22 -17 -27 0 -4 9 4 20 18 11 14 20 28 20 31 0 3 -162 6 -360 6 -198 0 -360 -3 -360 -7z"/>
    <path d="M3100 1613 c0 -5 160 -7 356 -5 l355 2 -7 -11 -7 -12 11 7 c7 4 12 11 12 17 l0 9 -360 0 c-198 0 -360 -3 -360 -7z"/>
    <path d="M2997 1520 l-14 -20 -329 -3 -329 -2 331 -3 332 -2 16 25 c19 30 13 34 -7 5z"/>
    <path d="M3734 1510 l-11 -11 -326 3 c-180 2 -327 0 -327 -4 0 -5 150 -8 334 -8 l334 0 6 15 c6 18 4 19 -10 5z"/>
    <path d="M3630 1305 l-13 -16 -273 3 c-151 2 -274 0 -274 -4 0 -5 125 -8 278 -8 l277 0 13 20 c14 24 10 26 -8 5z"/>
    <path d="M2458 1283 c79 -2 205 -2 280 0 75 1 11 3 -143 3 -154 0 -216 -2 -137 -3z"/>
    <path d="M2754 1090 l-10 -10 -174 -3 -175 -3 176 -2 177 -2 12 15 c14 17 10 21 -6 5z"/>
    <path d="M3514 1090 l-10 -10 -179 -3 -180 -2 186 -3 187 -2 6 15 c6 17 4 19 -10 5z"/>
  </g>
  <g transform="matrix(0.004108, 0, 0, -0.004108, 0.035646, 21.063457)" fill="#47a3fe" stroke="none" style="">
    <path d="M1828 4443 c239 -2 626 -2 860 0 235 1 40 2 -433 2 -473 0 -665 -1 -427 -2z"/>
    <path d="M445 3285 c0 -583 1 -823 2 -533 2 289 2 766 0 1060 -1 293 -2 56 -2 -527z"/>
    <path d="M4785 1240 c0 -388 1 -546 2 -353 2 194 2 512 0 706 -1 193 -2 35 -2 -353z"/>
    <path d="M4650 260 c-25 -28 -43 -50 -40 -50 6 0 56 52 79 83 25 32 6 17 -39 -33z"/>
    <path d="M323 165 l0 -13 15 6 15 5 -8 -13 -8 -13 11 7 c6 4 21 2 33 -4 11 -7 22 -10 25 -8 2 2 -16 14 -40 25 l-43 21 0 -13z"/>
    <path d="M2732 93 c291 -2 765 -2 1055 0 291 1 53 2 -527 2 -580 0 -818 -1 -528 -2z"/>
  </g>
  <g transform="matrix(0.004108, 0, 0, -0.004108, 0.035646, 21.063457)" fill="#c0faf0" stroke="none" style="">
    <path d="M323 4820 c-24 -10 -43 -21 -43 -24 0 -4 102 33 109 40 11 11 -29 1 -66 -16z"/>
    <path d="M4737 4548 c4 -7 22 -37 40 -67 18 -30 33 -50 33 -45 0 11 -69 124 -76 124 -3 0 -2 -6 3 -12z"/>
    <path d="M25 3810 c0 -322 1 -453 2 -292 2 160 2 424 0 585 -1 160 -2 29 -2 -293z"/>
    <path d="M2868 4383 c105 -2 279 -2 385 0 105 1 19 2 -193 2 -212 0 -298 -1 -192 -2z"/>
    <path d="M4358 3845 c-2 -300 0 -545 5 -545 4 0 7 245 7 545 0 300 -2 545 -5 545 -2 0 -6 -245 -7 -545z"/>
    <path d="M2423 3303 c104 -2 270 -2 370 0 100 1 16 2 -188 2 -203 0 -285 -1 -182 -2z"/>
    <path d="M1815 2695 c0 -203 1 -285 2 -182 2 104 2 270 0 370 -1 100 -2 16 -2 -188z"/>
    <path d="M4844 1305 c0 -154 2 -216 3 -137 2 79 2 205 0 280 -1 75 -3 11 -3 -143z"/>
    <path d="M3408 33 c184 -2 481 -2 660 0 180 1 30 2 -333 2 -363 0 -510 -1 -327 -2z"/>
  </g>
  <g transform="matrix(0.004108, 0, 0, -0.004108, 0.035646, 21.063457)" fill="#668af6" stroke="none" style="">
    <path d="M623 4503 c71 -2 183 -2 250 0 67 1 10 3 -128 3 -137 0 -192 -2 -122 -3z"/>
    <path d="M773 4443 c120 -2 314 -2 430 0 117 1 19 2 -218 2 -236 0 -332 -1 -212 -2z"/>
    <path d="M445 1405 c0 -462 1 -650 2 -417 2 233 2 611 0 840 -1 229 -2 39 -2 -423z"/>
    <path d="M385 1330 c0 -388 1 -546 2 -353 2 194 2 512 0 706 -1 193 -2 35 -2 -353z"/>
    <path d="M4653 419 c-17 -33 -25 -55 -17 -48 15 12 58 98 53 104 -3 2 -18 -23 -36 -56z"/>
    <path d="M275 219 c5 -24 25 -52 33 -44 3 2 -1 12 -9 22 l-14 17 18 -7 18 -7 -6 10 c-3 5 -15 14 -25 20 l-19 10 4 -21z"/>
    <path d="M983 93 c230 -2 604 -2 830 0 227 1 39 2 -418 2 -456 0 -642 -1 -412 -2z"/>
  </g>
  <g transform="matrix(0.004108, 0, 0, -0.004108, 0.035646, 21.063457)" fill="#9e5de8" stroke="none" style="">
    <path d="M1308 4503 c182 -2 482 -2 665 0 182 1 33 2 -333 2 -366 0 -515 -1 -332 -2z"/>
    <path d="M385 3205 c0 -654 1 -921 2 -592 2 329 2 865 0 1190 -1 326 -2 57 -2 -598z"/>
    <path d="M240 235 l44 -45 9 16 c5 8 6 18 3 21 -3 4 -6 1 -6 -5 l0 -11 -16 6 -16 6 12 7 12 7 -31 11 c-17 6 -31 16 -31 21 0 6 -5 11 -12 11 -7 0 8 -20 32 -45z"/>
    <path d="M912 153 c223 -2 592 -2 820 0 227 1 44 2 -407 2 -451 0 -637 -1 -413 -2z"/>
  </g>
  <g transform="matrix(0.004108, 0, 0, -0.004108, 0.035646, 21.063457)" fill="#e3fcf8" stroke="none" style="">
    <path d="M3583 4383 c86 -2 228 -2 315 0 86 1 15 3 -158 3 -173 0 -244 -2 -157 -3z"/>
    <path d="M4845 2455 c0 -490 1 -688 2 -442 2 247 2 647 0 890 -1 243 -2 42 -2 -448z"/>
    <path d="M2068 3303 c34 -2 90 -2 125 0 34 2 6 3 -63 3 -69 0 -97 -1 -62 -3z"/>
    <path d="M25 2365 c0 -484 1 -683 2 -443 2 240 2 636 0 880 -1 244 -2 47 -2 -437z"/>
    <path d="M1814 2120 c0 -124 2 -174 3 -112 2 61 2 163 0 225 -1 61 -3 11 -3 -113z"/>
    <path d="M1483 523 c71 -2 183 -2 250 0 67 1 10 3 -128 3 -137 0 -192 -2 -122 -3z"/>
  </g>
  <g transform="matrix(0.004108, 0, 0, -0.004108, 0.035646, 21.063457)" fill="#90f0fe" stroke="none" style="">
    <path d="M1903 4383 c148 -2 386 -2 530 0 144 1 24 2 -268 2 -291 0 -409 -1 -262 -2z"/>
    <path d="M505 3905 c0 -203 1 -285 2 -182 2 104 2 270 0 370 -1 100 -2 16 -2 -188z"/>
    <path d="M4844 765 c0 -154 2 -216 3 -137 2 79 2 205 0 280 -1 75 -3 11 -3 -143z"/>
    <path d="M1232 33 c339 -2 897 -2 1240 0 343 1 65 2 -617 2 -682 0 -962 -1 -623 -2z"/>
  </g>
  <g transform="matrix(0.004108, 0, 0, -0.004108, 0.035646, 21.063457)" fill="#5beafe" stroke="none" style="">
    <path d="M893 4383 c142 -2 372 -2 510 0 139 1 23 2 -258 2 -280 0 -394 -1 -252 -2z"/>
    <path d="M505 2035 c0 -836 1 -1177 2 -757 2 420 2 1104 0 1520 -1 416 -2 73 -2 -763z"/>
  </g>
  <g transform="matrix(0.004108, 0, 0, -0.004108, 0.035646, 21.063457)" fill="#035839" stroke="none" style="">
    <path d="M3147 2563 c-20 -19 10 -23 188 -23 107 0 195 3 195 8 0 4 -86 6 -191 4 l-191 -3 7 11 c7 11 2 14 -8 3z"/>
    <path d="M3840 2548 c0 -5 102 -7 228 -6 230 2 203 6 -76 10 -83 2 -152 0 -152 -4z"/>
    <path d="M2493 2543 c65 -2 168 -2 230 0 62 1 9 3 -118 3 -126 0 -177 -2 -112 -3z"/>
  </g>
  <g transform="matrix(0.004108, 0, 0, -0.004108, 0.035646, 21.063457)" fill="#47febc" stroke="none" style="">
    <path d="M3283 4853 c181 -2 473 -2 650 0 177 1 30 2 -328 2 -357 0 -502 -1 -322 -2z"/>
    <path d="M4128 3303 c45 -2 119 -2 165 0 45 1 8 3 -83 3 -91 0 -128 -2 -82 -3z"/>
    <path d="M1824 840 c0 -140 2 -198 3 -128 2 71 2 185 0 255 -1 71 -3 13 -3 -127z"/>
  </g>
  <g transform="matrix(0.004108, 0, 0, -0.004108, 0.035646, 21.063457)" fill="#64fec6" stroke="none" style="">
    <path d="M1688 4853 c239 -2 626 -2 860 0 235 1 40 2 -433 2 -473 0 -665 -1 -427 -2z"/>
    <path d="M3732 3303 c59 -2 158 -2 220 0 62 1 14 3 -107 3 -121 0 -172 -2 -113 -3z"/>
  </g>
  <g transform="matrix(0.004108, 0, 0, -0.004108, 0.035646, 21.063457)" fill="#30cdb7" stroke="none" style="">
    <path d="M3873 4513 c76 -2 198 -2 270 0 73 1 11 3 -138 3 -148 0 -208 -2 -132 -3z"/>
    <path d="M4715 3765 c0 -357 1 -502 2 -322 2 181 2 473 0 650 -1 177 -2 30 -2 -328z"/>
  </g>
  <g transform="matrix(0.004108, 0, 0, -0.004108, 0.035646, 21.063457)" fill="#81fed0" stroke="none" style="">
    <path d="M663 4853 c103 -2 271 -2 375 0 103 1 18 2 -188 2 -206 0 -291 -1 -187 -2z"/>
    <path d="M3128 3303 c94 -2 250 -2 345 0 94 1 17 3 -173 3 -190 0 -267 -2 -172 -3z"/>
  </g>
  <g transform="matrix(0.004108, 0, 0, -0.004108, 0.035646, 21.063457)" fill="#13edaa" stroke="none" style="">
    <path d="M3398 4513 c68 -2 176 -2 240 0 64 1 9 3 -123 3 -132 0 -185 -2 -117 -3z"/>
    <path d="M4714 2795 c0 -187 2 -262 3 -167 2 95 2 248 0 340 -1 92 -3 14 -3 -173z"/>
    <path d="M1824 1230 c0 -85 2 -120 3 -77 2 42 2 112 0 155 -1 42 -3 7 -3 -78z"/>
  </g>
  <g transform="matrix(0.004108, 0, 0, -0.004108, 0.035646, 21.063457)" fill="#07f6a6" stroke="none" style="">
    <path d="M3138 4513 c28 -2 76 -2 105 0 28 2 5 3 -53 3 -58 0 -81 -1 -52 -3z"/>
    <path d="M4715 2095 c0 -209 1 -296 2 -193 2 103 2 274 0 380 -1 106 -2 22 -2 -187z"/>
    <path d="M1824 1465 c0 -55 1 -76 3 -47 2 29 2 74 0 100 -2 26 -3 2 -3 -53z"/>
  </g>
</svg>